<mxfile host="app.diagrams.net" modified="2024-05-04T10:03:31.216Z" agent="5.0 (Windows NT 10.0; Win64; x64) AppleWebKit/537.36 (KHTML, like Gecko) Chrome/124.0.0.0 Safari/537.36" etag="RC67I6Z5AhgXY-LOy7Ab" version="20.4.0" type="github">
  <diagram id="x-SEVUSwufxlTRb1mQCB" name="PÃ¡gina-1">
    <mxGraphModel dx="1021" dy="499" grid="1" gridSize="10" guides="1" tooltips="1" connect="1" arrows="1" fold="1" page="1" pageScale="1" pageWidth="827" pageHeight="1169" math="0" shadow="0">
      <root>
        <mxCell id="0" />
        <mxCell id="1" parent="0" />
        <mxCell id="oHkbIEZmlbN_jY3XfqhF-1" value="&lt;font style=&quot;font-size: 9px;&quot;&gt;Copenhague: 2&lt;br&gt;Man. City: 4&lt;/font&gt;" style="whiteSpace=wrap;html=1;aspect=fixed;fillColor=#f5f5f5;fontColor=#333333;strokeColor=#666666;" parent="1" vertex="1">
          <mxGeometry x="40" y="40" width="70" height="70" as="geometry" />
        </mxCell>
        <mxCell id="oHkbIEZmlbN_jY3XfqhF-2" value="&lt;font style=&quot;font-size: 9px;&quot;&gt;Real Madrid: 4&lt;br&gt;Leipzig: 2&lt;/font&gt;" style="whiteSpace=wrap;html=1;aspect=fixed;fillColor=#f5f5f5;fontColor=#333333;strokeColor=#666666;" parent="1" vertex="1">
          <mxGeometry x="40" y="160" width="70" height="70" as="geometry" />
        </mxCell>
        <mxCell id="oHkbIEZmlbN_jY3XfqhF-3" value="&lt;font style=&quot;font-size: 9px;&quot;&gt;Bayern: 6&amp;nbsp;&lt;br&gt;Lazio: 2&amp;nbsp;&lt;/font&gt;" style="whiteSpace=wrap;html=1;aspect=fixed;fillColor=#f5f5f5;fontColor=#333333;strokeColor=#666666;" parent="1" vertex="1">
          <mxGeometry x="40" y="280" width="70" height="70" as="geometry" />
        </mxCell>
        <mxCell id="oHkbIEZmlbN_jY3XfqhF-4" value="&lt;font style=&quot;font-size: 9px;&quot;&gt;Arsenal: 2 (3)&lt;br&gt;Porto: 2 (1)&lt;/font&gt;" style="whiteSpace=wrap;html=1;aspect=fixed;fillColor=#f5f5f5;fontColor=#333333;strokeColor=#666666;" parent="1" vertex="1">
          <mxGeometry x="40" y="400" width="70" height="70" as="geometry" />
        </mxCell>
        <mxCell id="oHkbIEZmlbN_jY3XfqhF-5" value="&lt;font style=&quot;font-size: 9px;&quot;&gt;Barcelona: 2 (5)&lt;br&gt;Napoles: 2(4)&lt;/font&gt;" style="whiteSpace=wrap;html=1;aspect=fixed;fillColor=#f5f5f5;fontColor=#333333;strokeColor=#666666;" parent="1" vertex="1">
          <mxGeometry x="720" y="40" width="70" height="70" as="geometry" />
        </mxCell>
        <mxCell id="oHkbIEZmlbN_jY3XfqhF-6" value="&lt;font style=&quot;font-size: 9px;&quot;&gt;Dortmund: 3&lt;br&gt;PSV: 1&lt;/font&gt;" style="whiteSpace=wrap;html=1;aspect=fixed;fillColor=#f5f5f5;fontColor=#333333;strokeColor=#666666;" parent="1" vertex="1">
          <mxGeometry x="720" y="400" width="70" height="70" as="geometry" />
        </mxCell>
        <mxCell id="oHkbIEZmlbN_jY3XfqhF-7" value="&lt;font style=&quot;font-size: 9px;&quot;&gt;Inter: 2&lt;br&gt;Atletico Madrid: 3&lt;/font&gt;" style="whiteSpace=wrap;html=1;aspect=fixed;fillColor=#f5f5f5;fontColor=#333333;strokeColor=#666666;" parent="1" vertex="1">
          <mxGeometry x="720" y="280" width="70" height="70" as="geometry" />
        </mxCell>
        <mxCell id="oHkbIEZmlbN_jY3XfqhF-8" value="&lt;font style=&quot;font-size: 8px;&quot;&gt;PSG: 2 (4)&lt;br&gt;R.Sociedad: 2 (1)&lt;/font&gt;" style="whiteSpace=wrap;html=1;aspect=fixed;fillColor=#f5f5f5;fontColor=#333333;strokeColor=#666666;" parent="1" vertex="1">
          <mxGeometry x="720" y="160" width="70" height="70" as="geometry" />
        </mxCell>
        <mxCell id="oHkbIEZmlbN_jY3XfqhF-9" value="&lt;font style=&quot;font-size: 9px;&quot;&gt;Man. City: 4 (2)&lt;br&gt;Real Madrid: 4 (4)&lt;/font&gt;" style="whiteSpace=wrap;html=1;aspect=fixed;fillColor=#d5e8d4;strokeColor=#82b366;" parent="1" vertex="1">
          <mxGeometry x="160" y="100" width="70" height="70" as="geometry" />
        </mxCell>
        <mxCell id="oHkbIEZmlbN_jY3XfqhF-10" value="&lt;font style=&quot;font-size: 9px;&quot;&gt;Bayern: 3&lt;br&gt;Arsenal: 2&lt;/font&gt;" style="whiteSpace=wrap;html=1;aspect=fixed;fillColor=#d5e8d4;strokeColor=#82b366;" parent="1" vertex="1">
          <mxGeometry x="160" y="340" width="70" height="70" as="geometry" />
        </mxCell>
        <mxCell id="oHkbIEZmlbN_jY3XfqhF-11" value="&lt;font style=&quot;font-size: 9px;&quot;&gt;Barcelona: 4&lt;br&gt;PSG: 6&lt;/font&gt;" style="whiteSpace=wrap;html=1;aspect=fixed;fillColor=#d5e8d4;strokeColor=#82b366;" parent="1" vertex="1">
          <mxGeometry x="600" y="100" width="70" height="70" as="geometry" />
        </mxCell>
        <mxCell id="oHkbIEZmlbN_jY3XfqhF-12" value="&lt;font style=&quot;font-size: 9px;&quot;&gt;Atletico Madrid: 4&lt;br&gt;Dortmund: 5&lt;/font&gt;" style="whiteSpace=wrap;html=1;aspect=fixed;fillColor=#d5e8d4;strokeColor=#82b366;" parent="1" vertex="1">
          <mxGeometry x="600" y="340" width="70" height="70" as="geometry" />
        </mxCell>
        <mxCell id="oHkbIEZmlbN_jY3XfqhF-13" value="&lt;font style=&quot;font-size: 9px;&quot;&gt;Real Madrid: 4 (2)&lt;br&gt;Bayern: 4 (4)&lt;/font&gt;" style="whiteSpace=wrap;html=1;aspect=fixed;fillColor=#f8cecc;strokeColor=#b85450;fillStyle=auto;" parent="1" vertex="1">
          <mxGeometry x="240" y="220" width="70" height="70" as="geometry" />
        </mxCell>
        <mxCell id="oHkbIEZmlbN_jY3XfqhF-14" value="&lt;font style=&quot;font-size: 9px;&quot;&gt;PSG: 1 (6)&lt;br&gt;Dortmund: 1 (5)&lt;/font&gt;" style="whiteSpace=wrap;html=1;aspect=fixed;fillColor=#f8cecc;strokeColor=#b85450;" parent="1" vertex="1">
          <mxGeometry x="520" y="220" width="70" height="70" as="geometry" />
        </mxCell>
        <mxCell id="oHkbIEZmlbN_jY3XfqhF-15" value="&lt;font style=&quot;font-size: 11px;&quot;&gt;Bayern: 0 (1)&lt;br&gt;&lt;b&gt;Dortmund: 0 (5)&lt;/b&gt;&lt;/font&gt;" style="shape=process;whiteSpace=wrap;html=1;backgroundOutline=1;fillColor=#ffff88;strokeColor=#36393d;" parent="1" vertex="1">
          <mxGeometry x="351.75" y="165" width="123.5" height="60" as="geometry" />
        </mxCell>
        <mxCell id="oHkbIEZmlbN_jY3XfqhF-19" value="" style="endArrow=classic;html=1;rounded=0;edgeStyle=orthogonalEdgeStyle;entryX=0;entryY=0.5;entryDx=0;entryDy=0;exitX=1;exitY=0.5;exitDx=0;exitDy=0;" parent="1" source="oHkbIEZmlbN_jY3XfqhF-3" target="oHkbIEZmlbN_jY3XfqhF-10" edge="1">
          <mxGeometry width="50" height="50" relative="1" as="geometry">
            <mxPoint x="110" y="330" as="sourcePoint" />
            <mxPoint x="160" y="280" as="targetPoint" />
            <Array as="points">
              <mxPoint x="130" y="315" />
              <mxPoint x="130" y="375" />
            </Array>
          </mxGeometry>
        </mxCell>
        <mxCell id="oHkbIEZmlbN_jY3XfqhF-21" value="" style="endArrow=classic;html=1;rounded=0;edgeStyle=orthogonalEdgeStyle;exitX=1;exitY=0.5;exitDx=0;exitDy=0;" parent="1" target="oHkbIEZmlbN_jY3XfqhF-10" edge="1">
          <mxGeometry width="50" height="50" relative="1" as="geometry">
            <mxPoint x="110" y="440" as="sourcePoint" />
            <mxPoint x="160.0000000000001" y="385" as="targetPoint" />
            <Array as="points">
              <mxPoint x="130" y="440" />
              <mxPoint x="130" y="375" />
            </Array>
          </mxGeometry>
        </mxCell>
        <mxCell id="oHkbIEZmlbN_jY3XfqhF-22" value="" style="endArrow=classic;html=1;rounded=0;edgeStyle=orthogonalEdgeStyle;" parent="1" edge="1">
          <mxGeometry width="50" height="50" relative="1" as="geometry">
            <mxPoint x="110" y="199" as="sourcePoint" />
            <mxPoint x="160" y="140" as="targetPoint" />
            <Array as="points">
              <mxPoint x="130" y="199" />
              <mxPoint x="130" y="140" />
              <mxPoint x="160" y="140" />
            </Array>
          </mxGeometry>
        </mxCell>
        <mxCell id="oHkbIEZmlbN_jY3XfqhF-23" value="" style="endArrow=classic;html=1;rounded=0;edgeStyle=orthogonalEdgeStyle;entryX=0;entryY=0.5;entryDx=0;entryDy=0;exitX=1;exitY=0.5;exitDx=0;exitDy=0;" parent="1" edge="1">
          <mxGeometry width="50" height="50" relative="1" as="geometry">
            <mxPoint x="110" y="80" as="sourcePoint" />
            <mxPoint x="160" y="140" as="targetPoint" />
            <Array as="points">
              <mxPoint x="130" y="80" />
              <mxPoint x="130" y="140" />
            </Array>
          </mxGeometry>
        </mxCell>
        <mxCell id="oHkbIEZmlbN_jY3XfqhF-24" value="" style="endArrow=classic;html=1;rounded=0;edgeStyle=orthogonalEdgeStyle;" parent="1" source="oHkbIEZmlbN_jY3XfqhF-9" target="oHkbIEZmlbN_jY3XfqhF-13" edge="1">
          <mxGeometry width="50" height="50" relative="1" as="geometry">
            <mxPoint x="130" y="335" as="sourcePoint" />
            <mxPoint x="180" y="395" as="targetPoint" />
            <Array as="points">
              <mxPoint x="195" y="250" />
            </Array>
          </mxGeometry>
        </mxCell>
        <mxCell id="oHkbIEZmlbN_jY3XfqhF-25" value="" style="endArrow=classic;html=1;rounded=0;edgeStyle=orthogonalEdgeStyle;exitX=0.5;exitY=0;exitDx=0;exitDy=0;" parent="1" source="oHkbIEZmlbN_jY3XfqhF-10" edge="1">
          <mxGeometry width="50" height="50" relative="1" as="geometry">
            <mxPoint x="205" y="180" as="sourcePoint" />
            <mxPoint x="240" y="250" as="targetPoint" />
            <Array as="points">
              <mxPoint x="195" y="250" />
            </Array>
          </mxGeometry>
        </mxCell>
        <mxCell id="oHkbIEZmlbN_jY3XfqhF-27" value="" style="endArrow=classic;html=1;rounded=0;edgeStyle=orthogonalEdgeStyle;exitX=0.5;exitY=0;exitDx=0;exitDy=0;" parent="1" edge="1">
          <mxGeometry width="50" height="50" relative="1" as="geometry">
            <mxPoint x="640" y="340" as="sourcePoint" />
            <mxPoint x="590" y="250" as="targetPoint" />
            <Array as="points">
              <mxPoint x="640" y="250" />
              <mxPoint x="591" y="250" />
            </Array>
          </mxGeometry>
        </mxCell>
        <mxCell id="oHkbIEZmlbN_jY3XfqhF-28" value="" style="endArrow=classic;html=1;rounded=0;edgeStyle=orthogonalEdgeStyle;exitX=0.571;exitY=1;exitDx=0;exitDy=0;exitPerimeter=0;" parent="1" source="oHkbIEZmlbN_jY3XfqhF-11" edge="1">
          <mxGeometry width="50" height="50" relative="1" as="geometry">
            <mxPoint x="650" y="350" as="sourcePoint" />
            <mxPoint x="590" y="250" as="targetPoint" />
            <Array as="points">
              <mxPoint x="640" y="250" />
            </Array>
          </mxGeometry>
        </mxCell>
        <mxCell id="oHkbIEZmlbN_jY3XfqhF-29" value="" style="endArrow=classic;html=1;rounded=0;edgeStyle=orthogonalEdgeStyle;entryX=1;entryY=0.5;entryDx=0;entryDy=0;exitX=0;exitY=0.5;exitDx=0;exitDy=0;" parent="1" source="oHkbIEZmlbN_jY3XfqhF-5" target="oHkbIEZmlbN_jY3XfqhF-11" edge="1">
          <mxGeometry width="50" height="50" relative="1" as="geometry">
            <mxPoint x="650" y="80" as="sourcePoint" />
            <mxPoint x="700" y="140" as="targetPoint" />
            <Array as="points">
              <mxPoint x="700" y="75" />
              <mxPoint x="700" y="135" />
            </Array>
          </mxGeometry>
        </mxCell>
        <mxCell id="oHkbIEZmlbN_jY3XfqhF-30" value="" style="endArrow=classic;html=1;rounded=0;edgeStyle=orthogonalEdgeStyle;entryX=1;entryY=0.5;entryDx=0;entryDy=0;exitX=0;exitY=0.5;exitDx=0;exitDy=0;" parent="1" edge="1">
          <mxGeometry width="50" height="50" relative="1" as="geometry">
            <mxPoint x="720" y="310" as="sourcePoint" />
            <mxPoint x="670" y="370" as="targetPoint" />
            <Array as="points">
              <mxPoint x="700" y="310" />
              <mxPoint x="700" y="370" />
            </Array>
          </mxGeometry>
        </mxCell>
        <mxCell id="oHkbIEZmlbN_jY3XfqhF-31" value="" style="endArrow=classic;html=1;rounded=0;edgeStyle=orthogonalEdgeStyle;entryX=1;entryY=0.5;entryDx=0;entryDy=0;exitX=0;exitY=0.5;exitDx=0;exitDy=0;" parent="1" source="oHkbIEZmlbN_jY3XfqhF-8" target="oHkbIEZmlbN_jY3XfqhF-11" edge="1">
          <mxGeometry width="50" height="50" relative="1" as="geometry">
            <mxPoint x="730" y="85" as="sourcePoint" />
            <mxPoint x="680" y="145" as="targetPoint" />
            <Array as="points">
              <mxPoint x="700" y="195" />
              <mxPoint x="700" y="135" />
            </Array>
          </mxGeometry>
        </mxCell>
        <mxCell id="oHkbIEZmlbN_jY3XfqhF-32" value="" style="endArrow=classic;html=1;rounded=0;edgeStyle=orthogonalEdgeStyle;entryX=1;entryY=0.5;entryDx=0;entryDy=0;exitX=0;exitY=0.5;exitDx=0;exitDy=0;" parent="1" edge="1">
          <mxGeometry width="50" height="50" relative="1" as="geometry">
            <mxPoint x="720" y="430" as="sourcePoint" />
            <mxPoint x="670" y="370" as="targetPoint" />
            <Array as="points">
              <mxPoint x="700" y="430" />
              <mxPoint x="700" y="370" />
            </Array>
          </mxGeometry>
        </mxCell>
        <mxCell id="oHkbIEZmlbN_jY3XfqhF-34" value="" style="endArrow=classic;html=1;rounded=0;edgeStyle=orthogonalEdgeStyle;exitX=0;exitY=0.5;exitDx=0;exitDy=0;" parent="1" edge="1">
          <mxGeometry width="50" height="50" relative="1" as="geometry">
            <mxPoint x="520" y="260.05" as="sourcePoint" />
            <mxPoint x="480" y="200" as="targetPoint" />
            <Array as="points">
              <mxPoint x="520" y="250" />
              <mxPoint x="500" y="250" />
              <mxPoint x="500" y="200" />
            </Array>
          </mxGeometry>
        </mxCell>
        <mxCell id="oHkbIEZmlbN_jY3XfqhF-35" value="" style="endArrow=classic;html=1;rounded=0;edgeStyle=orthogonalEdgeStyle;exitX=1;exitY=0.5;exitDx=0;exitDy=0;" parent="1" source="oHkbIEZmlbN_jY3XfqhF-13" edge="1">
          <mxGeometry width="50" height="50" relative="1" as="geometry">
            <mxPoint x="340" y="250.04999999999995" as="sourcePoint" />
            <mxPoint x="350" y="200" as="targetPoint" />
            <Array as="points">
              <mxPoint x="310" y="250" />
              <mxPoint x="330" y="250" />
              <mxPoint x="330" y="200" />
              <mxPoint x="350" y="200" />
            </Array>
          </mxGeometry>
        </mxCell>
        <mxCell id="oHkbIEZmlbN_jY3XfqhF-37" value="&lt;b&gt;&lt;font style=&quot;font-size: 15px;&quot;&gt;OCTAVOS&lt;/font&gt;&lt;/b&gt;" style="text;html=1;align=center;verticalAlign=middle;resizable=0;points=[];autosize=1;strokeColor=none;fillColor=none;" parent="1" vertex="1">
          <mxGeometry x="25" y="10" width="100" height="30" as="geometry" />
        </mxCell>
        <mxCell id="oHkbIEZmlbN_jY3XfqhF-38" value="&lt;b&gt;&lt;font style=&quot;font-size: 15px;&quot;&gt;CUARTOS&lt;/font&gt;&lt;/b&gt;" style="text;html=1;align=center;verticalAlign=middle;resizable=0;points=[];autosize=1;strokeColor=none;fillColor=none;" parent="1" vertex="1">
          <mxGeometry x="145" y="70" width="100" height="30" as="geometry" />
        </mxCell>
        <mxCell id="oHkbIEZmlbN_jY3XfqhF-39" value="&lt;span&gt;&lt;font style=&quot;font-size: 15px;&quot;&gt;SEMIFINAL&lt;/font&gt;&lt;/span&gt;" style="text;html=1;align=center;verticalAlign=middle;resizable=0;points=[];autosize=1;strokeColor=none;fillColor=none;fontStyle=1" parent="1" vertex="1">
          <mxGeometry x="225" y="190" width="100" height="30" as="geometry" />
        </mxCell>
        <mxCell id="oHkbIEZmlbN_jY3XfqhF-40" value="&lt;font style=&quot;font-size: 17px;&quot;&gt;&lt;b&gt;FINAL&lt;/b&gt;&lt;/font&gt;" style="text;html=1;align=center;verticalAlign=middle;resizable=0;points=[];autosize=1;strokeColor=none;fillColor=none;" parent="1" vertex="1">
          <mxGeometry x="379" y="130" width="70" height="30" as="geometry" />
        </mxCell>
        <mxCell id="oHkbIEZmlbN_jY3XfqhF-41" value="&lt;b&gt;&lt;font style=&quot;font-size: 15px;&quot;&gt;OCTAVOS&lt;/font&gt;&lt;/b&gt;" style="text;html=1;align=center;verticalAlign=middle;resizable=0;points=[];autosize=1;strokeColor=none;fillColor=none;" parent="1" vertex="1">
          <mxGeometry x="705" y="10" width="100" height="30" as="geometry" />
        </mxCell>
        <mxCell id="oHkbIEZmlbN_jY3XfqhF-42" value="&lt;b&gt;&lt;font style=&quot;font-size: 15px;&quot;&gt;CUARTOS&lt;/font&gt;&lt;/b&gt;" style="text;html=1;align=center;verticalAlign=middle;resizable=0;points=[];autosize=1;strokeColor=none;fillColor=none;" parent="1" vertex="1">
          <mxGeometry x="585" y="70" width="100" height="30" as="geometry" />
        </mxCell>
        <mxCell id="oHkbIEZmlbN_jY3XfqhF-43" value="&lt;span&gt;&lt;font style=&quot;font-size: 15px;&quot;&gt;SEMIFINAL&lt;/font&gt;&lt;/span&gt;" style="text;html=1;align=center;verticalAlign=middle;resizable=0;points=[];autosize=1;strokeColor=none;fillColor=none;fontStyle=1" parent="1" vertex="1">
          <mxGeometry x="505" y="190" width="100" height="30" as="geometry" />
        </mxCell>
        <mxCell id="oHkbIEZmlbN_jY3XfqhF-44" value="PredicciÃ³n MÃ©todo Gaussiano" style="text;html=1;align=center;verticalAlign=middle;resizable=0;points=[];autosize=1;strokeColor=none;fillColor=none;fontSize=17;" parent="1" vertex="1">
          <mxGeometry x="288.5" y="30" width="250" height="30" as="geometry" />
        </mxCell>
      </root>
    </mxGraphModel>
  </diagram>
</mxfile>
